<svg xmlns="http://www.w3.org/2000/svg" width="28" height="28" viewBox="0 0 28 28" fill="none"><script xmlns=""/>
<path d="M21.5 13.375H15.2225C14.945 13.3004 14.6662 13.2306 14.3863 13.1656C12.6312 12.7506 11.6388 12.4469 11.6388 11.0263C11.6245 10.781 11.6608 10.5355 11.7454 10.3049C11.83 10.0742 11.9612 9.86347 12.1306 9.68564C12.6615 9.24908 13.3264 9.00852 14.0137 9.00439C15.7825 8.96064 16.5981 9.56064 17.265 10.4731L18.2744 9.73564C17.8019 9.05711 17.1578 8.51617 16.4078 8.16808C15.6578 7.81999 14.8288 7.67723 14.0056 7.75439C12.9944 7.76085 12.0189 8.12911 11.2556 8.79252C10.9663 9.08595 10.7402 9.43554 10.5913 9.81971C10.4423 10.2039 10.3736 10.6145 10.3894 11.0263C10.362 11.4768 10.4466 11.9271 10.6357 12.337C10.8248 12.7469 11.1125 13.1035 11.4731 13.375H6.5V14.625H15.0325C16.2619 14.9813 16.9969 15.445 17.0156 16.7238C17.0359 16.9969 16.9985 17.2713 16.9056 17.529C16.8128 17.7867 16.6667 18.0219 16.4769 18.2194C15.8155 18.7407 14.9938 19.0166 14.1519 19C13.5234 18.9818 12.9074 18.8209 12.3503 18.5296C11.7932 18.2382 11.3097 17.8239 10.9362 17.3181L9.97812 18.1206C10.4636 18.7676 11.0899 19.2955 11.8097 19.6645C12.5295 20.0334 13.3238 20.2336 14.1325 20.25H14.195C15.3492 20.2633 16.4695 19.8596 17.35 19.1131C17.6625 18.7981 17.9054 18.421 18.0632 18.0062C18.2209 17.5914 18.2898 17.1481 18.2656 16.705C18.289 15.947 18.0332 15.2069 17.5469 14.625H21.5V13.375Z" fill="#212529"/>
</svg>